<svg width="32" height="32" viewBox="0 0 32 32" fill="none" xmlns="http://www.w3.org/2000/svg">
<path d="M14.6924 2.01036C12.0537 2.19338 9.67931 3.06541 7.56157 4.63106C6.69634 5.27085 5.78961 6.14134 5.09189 7.00414C4.72306 7.45784 4.26969 8.10686 3.9777 8.59285C2.95417 10.3031 2.30717 12.2209 2.08433 14.2064C1.98444 15.0861 1.97214 16.1581 2.05359 17.0363C2.3087 19.8415 3.39063 22.4853 5.16259 24.6338C5.66667 25.2444 6.33365 25.918 6.94223 26.4302C8.99696 28.1558 11.5158 29.2247 14.1561 29.4923C14.7739 29.5553 15.5915 29.5784 15.845 29.5415C16.9669 29.3723 17.8276 28.5187 18.0135 27.3914C18.0565 27.133 18.0489 26.6962 17.9966 26.4563C17.7968 25.5212 17.1406 24.783 16.2631 24.5046C15.9987 24.4216 15.8635 24.4031 15.4071 24.3878C14.7816 24.3662 14.3636 24.3216 13.8779 24.2247C11.3898 23.7295 9.22134 22.0747 8.03645 19.7662C7.39406 18.5158 7.06979 17.1762 7.06979 15.7752C7.06979 13.1175 8.27158 10.6199 10.3432 8.97273C12.0737 7.59779 14.2514 6.97184 16.4444 7.21791C17.9905 7.39016 19.4658 8.00689 20.7014 8.99426C22.2797 10.2554 23.3663 12.0333 23.7735 14.0219C23.8995 14.6371 23.9364 15.0308 23.9364 15.7598C23.9364 16.4918 23.9088 16.8164 23.7889 17.4438C23.586 18.5143 23.1542 19.5924 22.5656 20.5029C22.4764 20.6413 22.4657 20.652 22.4472 20.6259C22.4365 20.609 21.8955 19.7877 21.2454 18.7973C20.5954 17.8083 20.0252 16.9502 19.9776 16.8902C19.9299 16.8317 19.8239 16.7164 19.7394 16.6364C19.2107 16.1304 18.5099 15.8967 17.7138 15.9582C17.0745 16.0074 16.5704 16.235 16.1278 16.6749C15.6576 17.1424 15.3902 17.753 15.3579 18.4281C15.3379 18.8695 15.4378 19.3263 15.6422 19.7185C15.7175 19.8646 21.5882 28.8063 21.8755 29.2139C21.9985 29.3877 22.2551 29.6445 22.438 29.7737C22.7439 29.9921 23.1327 30.1551 23.4954 30.2182C23.6998 30.2536 24.1162 30.2613 24.313 30.232C25.2427 30.0998 25.9927 29.4938 26.3477 28.5895C26.4184 28.408 26.4876 28.1266 26.5121 27.922C26.5367 27.7052 26.5214 27.316 26.4799 27.1192C26.3861 26.6747 26.2739 26.4471 25.7898 25.7119L25.4225 25.1506L25.4978 25.066C25.6177 24.9322 26.0004 24.4723 26.1203 24.3186C27.7109 22.2746 28.7113 19.737 28.9603 17.1209C29.0494 16.1796 29.0418 15.1369 28.9373 14.2141C28.6668 11.8057 27.7831 9.52178 26.3677 7.57472C24.8877 5.53692 22.8714 3.94358 20.5723 2.99158C19.3183 2.47329 18.0581 2.16724 16.6135 2.0319C16.303 2.00267 15.0152 1.98883 14.6924 2.01036Z" fill="#01558C"/>
<rect x="14.5117" y="17.79" width="5.31716" height="16.322" rx="2.65858" transform="rotate(-33 14.5117 17.79)" fill="#CC6118"/>
</svg>
