<svg width="663" height="283" viewBox="0 0 663 283" fill="none" xmlns="http://www.w3.org/2000/svg">
<path d="M473.554 0.0468953C466.204 0.431296 460.166 1.50949 454.287 3.469C441.874 7.60364 432.583 15.6292 427.811 26.3268C425.823 30.7989 424.707 35.0273 424.079 40.5777C423.845 42.6685 423.845 49.372 424.079 51.7347C424.97 60.5009 427.22 67.3638 431.214 73.4299C434.814 78.9052 439.661 83.3961 446.224 87.3339C451.297 90.381 456.772 92.7905 466.016 96.0345C473.704 98.744 475.654 99.466 479.123 100.9C485.508 103.554 489.296 105.86 492.165 108.851C493.459 110.201 494.293 111.354 495.071 112.911C496.215 115.198 496.618 116.895 496.684 119.755C496.9 128.465 492.671 134.793 484.852 137.493C483.033 138.122 480.961 138.553 478.383 138.853C477.004 139.012 472.064 139.012 470.648 138.844C465.116 138.215 460.288 136.622 454.775 133.593C453.903 133.124 451.812 131.896 450.134 130.874C446.093 128.427 445.446 128.052 443.815 127.255C441.415 126.074 439.399 125.521 437.514 125.521C434.955 125.521 432.377 126.346 430.126 127.883C429.02 128.634 427.286 130.359 426.47 131.521C423.667 135.496 422.57 140.944 423.582 145.857C425.251 153.891 432.395 159.798 445.802 164.223C453.237 166.68 460.222 168.039 469.007 168.761C471.351 168.949 478.861 168.921 481.008 168.714C489.212 167.908 495.831 166.136 502.206 163.023C507.456 160.464 511.469 157.642 515.37 153.741C522.757 146.372 527.258 137.053 528.87 125.802C529.536 121.105 529.602 115.236 529.049 110.285C527.305 94.7875 519.645 83.2555 505.806 75.2862C502.309 73.2705 497.996 71.3297 492.727 69.3983C491.002 68.7702 486.643 67.3076 479.977 65.1418C474.736 63.4448 471.839 62.3479 468.829 60.9509C462.21 57.8757 458.244 54.4817 456.519 50.4033C454.991 46.7656 455.206 41.5715 457.053 38.065C458.806 34.7273 461.882 32.4115 466.251 31.1177C470.61 29.8332 476.817 29.5332 481.852 30.3676C483.427 30.6302 485.733 31.2115 487.336 31.7459C490.083 32.674 491.762 33.4241 496.853 35.993C500.997 38.0932 502.497 38.7776 504.194 39.3682C506.5 40.1558 508.244 40.4839 510.213 40.4839C512.388 40.4839 514.076 40.0995 515.979 39.1807C520.104 37.1837 523.02 33.1897 524.051 28.1175C524.942 23.7485 524.276 19.3513 522.167 15.7792C521.407 14.4947 520.61 13.454 519.41 12.2258C517.141 9.90067 514.723 8.24119 510.935 6.40356C503.566 2.82208 494.077 0.703189 482.649 0.0750221C481.111 -0.00935845 474.932 -0.0281097 473.554 0.0468953Z" fill="#01558C"/>
<path d="M77.4349 0.539765C61.3369 1.65546 46.8516 6.97144 33.932 16.5158C28.6535 20.4161 23.1219 25.7227 18.8654 30.9824C16.6152 33.7482 13.8494 37.7047 12.068 40.6674C5.82387 51.0931 1.87673 62.7845 0.517267 74.8884C-0.0921482 80.2513 -0.167153 86.7861 0.329755 92.1395C1.88611 109.241 8.48654 125.357 19.2966 138.455C22.3718 142.177 26.4409 146.284 30.1536 149.406C42.6888 159.925 58.0554 166.441 74.1628 168.073C77.9318 168.457 82.9196 168.598 84.4666 168.373C91.3108 167.341 96.5611 162.138 97.6956 155.266C97.9581 153.69 97.9112 151.028 97.5924 149.565C96.3736 143.865 92.3702 139.365 87.0167 137.668C85.4041 137.161 84.5791 137.049 81.7945 136.955C77.9786 136.824 75.4285 136.552 72.4658 135.961C57.2866 132.942 44.0576 122.854 36.829 108.781C32.91 101.159 30.9318 92.9927 30.9318 84.4515C30.9318 68.2505 38.2635 53.0245 50.9018 42.9832C61.4588 34.6014 74.7441 30.7855 88.1231 32.2856C97.5549 33.3357 106.556 37.0953 114.094 43.1144C123.722 50.8024 130.351 61.6407 132.835 73.7633C133.604 77.5136 133.829 79.9137 133.829 84.3578C133.829 88.8206 133.66 90.7988 132.929 94.6241C131.692 101.15 129.057 107.722 125.466 113.272C124.922 114.116 124.857 114.182 124.744 114.022C124.679 113.919 121.378 108.913 117.412 102.875C113.447 96.8461 109.968 91.6145 109.678 91.2489C109.387 90.8926 108.74 90.1894 108.224 89.7019C104.999 86.6173 100.724 85.1922 95.8673 85.5672C91.9671 85.8673 88.8919 87.2549 86.1917 89.9363C83.3227 92.7865 81.6914 96.5086 81.4945 100.624C81.3726 103.315 81.982 106.1 83.229 108.491C83.6884 109.381 119.503 163.891 121.257 166.376C122.007 167.435 123.572 169.001 124.688 169.788C126.554 171.12 128.926 172.114 131.138 172.498C132.385 172.714 134.926 172.76 136.126 172.582C141.798 171.776 146.374 168.082 148.54 162.569C148.971 161.463 149.393 159.747 149.543 158.5C149.693 157.178 149.599 154.806 149.346 153.606C148.774 150.897 148.09 149.509 145.136 145.027L142.895 141.605L143.355 141.09C144.086 140.274 146.421 137.471 147.152 136.533C156.856 124.073 162.959 108.603 164.478 92.6552C165.022 86.9173 164.975 80.5607 164.337 74.9353C162.687 60.2531 157.296 46.3303 148.661 34.4607C139.633 22.038 127.332 12.3249 113.306 6.5214C105.655 3.36182 97.9675 1.49608 89.1544 0.671025C87.2605 0.492888 79.4037 0.408506 77.4349 0.539765Z" fill="#01558C"/>
<path d="M197.117 1.01769C190.835 1.71149 185.529 6.89621 183.71 14.0873C183.044 16.7125 183.091 12.7653 183.129 62.7937C183.157 96.2928 183.185 108.172 183.269 109.109C183.766 114.838 184.169 117.819 184.976 121.86C186.719 130.533 189.748 138.455 193.864 145.065C195.045 146.968 196.442 148.862 198.12 150.85C199.414 152.378 202.17 155.153 203.68 156.456C212.774 164.238 224.081 168.485 237.62 169.207C244.398 169.563 251.542 168.898 257.674 167.332C266.122 165.166 273.453 161.303 279.707 155.725C282.707 153.043 286.017 149.199 288.145 145.927C292.242 139.646 295.345 131.995 297.202 123.66C298.336 118.55 298.927 114.247 299.377 107.656C299.518 105.471 299.602 20.4252 299.461 18.1563C299.302 15.7468 298.955 14.0217 298.214 11.9778C296.161 6.33367 291.745 2.2459 286.56 1.20521C282.154 0.323899 277.579 1.71149 274.194 4.94608C271.1 7.90878 269.365 11.4809 268.597 16.4312C268.503 17.0125 268.465 26.6131 268.409 60.0747C268.372 83.6638 268.315 103.174 268.287 103.437C268.25 103.69 268.137 104.768 268.034 105.828C267.397 112.203 265.85 117.716 263.449 122.141C262.84 123.266 261.396 125.423 260.609 126.407C258.771 128.686 256.39 130.626 253.839 131.939C250.53 133.636 246.883 134.452 242.073 134.583C232.06 134.845 225.244 131.583 220.368 124.204C217.162 119.366 215.174 112.972 214.471 105.265C214.396 104.412 214.302 103.503 214.265 103.249C214.237 102.987 214.181 83.4575 214.143 59.8403C214.068 12.5028 214.124 16.6656 213.515 14.0967C211.509 5.65863 204.646 0.19264 197.117 1.01769Z" fill="#01558C"/>
<path d="M333.779 2.93481C331.135 3.51609 328.828 5.0537 327.056 7.42573C325.509 9.48836 324.394 12.1979 323.822 15.2637L323.597 16.4357L323.569 81.7369C323.55 140.935 323.559 147.151 323.691 148.229C324.187 152.195 325.791 155.832 328.097 158.233C329.644 159.845 331.304 160.867 333.272 161.411L334.191 161.664H368.881H403.571L404.321 161.448C409.309 160.023 412.806 153.967 412.806 146.785C412.806 140.485 409.909 134.709 405.746 132.656C405.324 132.45 404.64 132.187 404.227 132.065L403.477 131.85L377.019 131.821L350.552 131.803V114.177V96.5504H372.566C396.689 96.5504 394.917 96.5879 396.473 95.9878C401.527 94.0377 404.715 86.481 403.665 78.943C403.149 75.2396 401.677 71.9675 399.558 69.7642C398.03 68.1891 396.464 67.3078 394.617 67.0172C394.214 66.9609 386.667 66.9234 372.284 66.9234H350.552V49.766V32.6086L377.16 32.5805C407.246 32.5524 404.011 32.6461 405.821 31.7648C409.102 30.171 411.531 26.4207 412.468 21.5267C412.853 19.5203 412.9 16.3701 412.571 14.4199C411.615 8.69144 408.69 4.48178 404.743 3.14107L403.852 2.84105L369.115 2.8223C339.76 2.81292 334.285 2.83167 333.779 2.93481Z" fill="#01558C"/>
<path d="M547.013 3.73015C541.294 4.93023 536.916 10.2556 536.194 16.8748C535.388 24.1596 539.532 31.3132 545.71 33.3009C547.557 33.9009 546.067 33.854 566.027 33.8915L584.188 33.929V92.8548C584.188 133.648 584.216 152.062 584.291 152.69C584.882 158.118 587.797 162.825 592.213 165.478C594.688 166.96 597.839 167.7 600.595 167.428C607.439 166.772 612.84 161.625 614.396 154.256L614.612 153.224L614.64 93.5767L614.659 33.929L632.922 33.8915C646.283 33.8634 651.317 33.8259 651.702 33.7509C654.242 33.2258 656.333 32.1383 658.133 30.4132C660.018 28.6224 661.255 26.6442 662.127 24.0659C663.29 20.6531 663.29 16.7998 662.127 13.2933C660.674 8.91487 657.374 5.40839 653.492 4.11455C651.627 3.49576 656.183 3.54264 599.433 3.55202C549.207 3.55202 547.839 3.56139 547.013 3.73015Z" fill="#01558C"/>
<path d="M287.3 206.274C279.755 206.93 273.071 209.264 267.035 213.351C263.407 215.816 259.799 219.341 257.24 222.921C254.203 227.186 252.056 232.229 251.128 237.328C250.66 239.868 250.566 241.106 250.566 244.171C250.566 247.245 250.697 248.839 251.128 251.388C253.443 264.942 262.161 275.159 275.237 279.64C282.136 282.002 290.122 282.63 298.408 281.468C302.42 280.905 307.088 279.631 309.403 278.468C311.343 277.503 313.087 276.012 313.902 274.625C314.886 272.957 315.046 270.885 314.352 268.917C313.977 267.839 313.555 267.192 312.646 266.283C311.981 265.608 311.699 265.402 310.959 265.036C309.731 264.436 308.859 264.23 307.51 264.23C305.841 264.23 305.11 264.427 302.017 265.636C298.08 267.183 295.521 267.717 291.331 267.848C286.935 267.998 283.298 267.248 279.605 265.449C273.774 262.59 269.463 257.2 267.804 250.685C267.204 248.333 266.997 246.617 266.997 244.03C266.988 240.534 267.588 237.441 268.835 234.469C271.047 229.183 274.909 225.04 279.942 222.528C283.748 220.634 287.638 219.884 292.128 220.165C295.708 220.4 297.405 220.793 301.361 222.34C304.079 223.39 304.501 223.493 306.328 223.493C308.053 223.502 308.578 223.39 309.815 222.79C312.346 221.543 313.799 218.984 313.668 216.013C313.499 212.479 311.128 210.08 306.178 208.458C302.645 207.305 299.008 206.611 294.893 206.302C293.702 206.218 288.2 206.19 287.3 206.274Z" fill="#CC6118"/>
<path d="M64.7961 206.496C63.3713 206.843 61.8528 207.78 60.9717 208.867C60.4468 209.514 59.8469 210.658 59.6032 211.501C59.4439 212.036 59.4345 213.826 59.4064 243.746C59.3876 278.062 59.3595 276.225 59.8844 277.519C61.0374 280.368 63.9056 282.187 66.9801 282.009C70.1671 281.821 72.8385 279.656 73.6071 276.647C73.7665 276.019 73.7759 274.416 73.7759 244.121C73.7759 213.807 73.7665 212.223 73.6071 211.595C72.7823 208.38 69.989 206.29 66.5583 206.309C65.8741 206.309 65.2742 206.374 64.7961 206.496Z" fill="#CC6118"/>
<path d="M604.679 206.433C602.242 206.968 600.218 208.767 599.412 211.12L599.158 211.87V244.115V276.359L599.412 277.109C600.199 279.406 602.074 281.149 604.464 281.805C605.298 282.04 607.266 282.04 608.101 281.805C610.154 281.243 611.859 279.865 612.731 278.065C613.519 276.453 613.453 279.724 613.453 244.096C613.453 212.789 613.453 212.329 613.265 211.57C612.647 208.964 610.566 206.996 607.866 206.433C607.042 206.265 605.457 206.265 604.679 206.433Z" fill="#CC6118"/>
<path d="M6.4221 207.243C4.98796 207.487 3.46009 208.256 2.37276 209.277C1.28544 210.308 0.619929 211.443 0.216871 212.952L0.00128174 213.748V244.587V275.426L0.216871 276.222C1.18234 279.869 4.45367 282.221 8.24992 282.006C11.9806 281.79 15.1019 278.997 15.5987 275.435C15.6643 274.948 15.7018 270.786 15.7018 262.725V250.736L29.7432 250.699C45.4625 250.67 44.2065 250.727 45.7437 249.977C47.1216 249.302 48.1808 248.233 48.8463 246.837C49.3338 245.806 49.4837 245.112 49.4837 243.884C49.4837 242.581 49.3338 241.934 48.7245 240.697C48.3589 239.947 48.1621 239.675 47.4403 238.963C46.5217 238.054 45.8281 237.623 44.6189 237.21L43.9628 236.995L29.837 236.966L15.7018 236.948V228.98V221.022L32.1803 220.985C50.646 220.957 49.09 221.013 50.6179 220.263C52.3895 219.382 53.7393 217.685 54.2267 215.726C54.4517 214.845 54.4704 213.477 54.2829 212.567C53.7768 210.196 52.0239 208.237 49.6806 207.44L48.9307 207.187L27.9342 207.178C15.6831 207.168 6.72205 207.196 6.4221 207.243Z" fill="#CC6118"/>
<path d="M456.326 217.131C453.327 217.703 451.105 219.915 450.59 222.849C450.477 223.496 450.449 224.48 450.449 227.489V231.313L448.134 231.351C445.912 231.388 445.781 231.398 445.181 231.632C443.335 232.335 442.069 233.722 441.591 235.559C441.357 236.45 441.432 238.006 441.76 238.849C442.294 240.237 443.26 241.324 444.497 241.933C445.594 242.477 446.231 242.58 448.499 242.58H450.44L450.477 254.737C450.515 267.851 450.496 267.429 451.012 269.81C451.49 271.994 452.511 274.384 453.645 275.987C457.161 280.918 463.591 282.933 471.671 281.658C477.538 280.721 482.16 278.199 483.809 275.022C484.287 274.103 484.475 273.344 484.475 272.369C484.475 268.985 481.897 266.473 478.673 266.707C477.595 266.792 476.714 267.101 475.008 268.029C472.402 269.444 471.671 269.688 469.993 269.688C467.303 269.707 465.868 268.629 465.147 266.061L464.931 265.311L464.903 253.95L464.875 242.589L470.293 242.561L475.711 242.533L476.414 242.28C477.838 241.755 478.944 240.771 479.61 239.44C481.128 236.366 479.713 232.804 476.498 231.632L475.804 231.379L470.349 231.351L464.903 231.323L464.856 227.18C464.819 222.53 464.8 222.418 464.125 221.059C462.719 218.19 459.438 216.541 456.326 217.131Z" fill="#CC6118"/>
<path d="M642.053 230.292C639.372 230.451 636.279 231.042 634.254 231.792C629.183 233.648 626.024 237.069 624.965 241.85C624.712 242.965 624.618 245.936 624.777 247.352C625.349 252.245 627.955 255.769 632.81 258.206C634.404 259.003 635.079 259.275 640.337 261.224C642.456 262.012 644.593 262.949 645.54 263.493C646.383 263.99 647.236 264.796 647.536 265.386C647.864 266.024 647.977 266.839 647.845 267.589C647.574 269.136 646.618 270.064 644.687 270.617C644.021 270.814 643.768 270.832 641.94 270.823C640.234 270.823 639.775 270.785 638.978 270.617C637.713 270.345 636.241 269.829 634.301 268.976C631.733 267.851 630.72 267.58 629.145 267.57C628.274 267.57 628.002 267.617 627.364 267.823C625.04 268.601 623.568 270.682 623.568 273.166C623.578 277.084 626.69 279.775 632.707 281.096C635.613 281.743 638.266 281.987 642.268 281.977C645.502 281.977 646.561 281.884 648.877 281.415C651.576 280.862 654.772 279.521 656.75 278.125C657.866 277.328 659.731 275.481 660.453 274.45C661.587 272.819 662.431 270.785 662.805 268.77C663.077 267.345 663.049 264.543 662.768 263.118C661.878 258.694 659.309 255.619 654.547 253.304C652.917 252.507 651.417 251.907 648.22 250.773C643.665 249.151 642.156 248.458 641.087 247.464C640.066 246.518 639.719 245.533 639.972 244.324C640.412 242.159 643.206 241.156 647.142 241.737C648.174 241.896 649.12 242.159 651.211 242.862C652.27 243.218 653.545 243.593 654.041 243.696C656.891 244.277 658.812 243.893 660.265 242.431C661.399 241.306 661.906 240.003 661.906 238.222C661.906 236.488 661.484 235.494 660.218 234.22C659.75 233.742 659.14 233.254 658.747 233.02C656.375 231.623 652.954 230.742 648.502 230.395C646.739 230.255 643.562 230.208 642.053 230.292Z" fill="#CC6118"/>
<path d="M108.408 230.523C106.167 230.776 103.89 231.292 101.799 232.013C92.979 235.041 87.0457 242.034 85.499 251.192C84.5523 256.778 85.2085 262.655 87.2894 267.361C88.536 270.191 90.1483 272.488 92.4073 274.691C96.541 278.703 102.006 281.13 108.548 281.861C110.001 282.021 114.229 282.021 115.532 281.861C121.193 281.168 125.617 279.49 129.582 276.528C130.97 275.487 133.079 273.378 134.11 272.001C136.472 268.832 137.953 265.345 138.637 261.362C138.946 259.534 139.059 258.165 139.059 256.178C139.059 247.676 135.684 240.496 129.498 235.828C125.852 233.082 121.465 231.339 116.375 230.607C114.866 230.392 110.011 230.345 108.408 230.523ZM114.875 242.709C119.056 243.646 121.934 246.017 123.611 249.898C123.977 250.76 124.427 252.344 124.643 253.535C124.83 254.632 124.802 258.034 124.586 259.206C124.024 262.28 122.871 264.624 120.996 266.517C119.356 268.176 117.378 269.226 114.847 269.77C113.46 270.07 110.573 270.07 109.186 269.77C106.599 269.207 104.668 268.167 102.971 266.414C101.987 265.392 101.387 264.549 100.768 263.302C99.0343 259.843 98.7343 255.044 99.9904 251.098C101.471 246.449 104.968 243.402 109.72 242.615C110.807 242.437 113.901 242.493 114.875 242.709Z" fill="#CC6118"/>
<path d="M149.836 230.527C148.43 230.827 147.155 231.436 146.264 232.242C144.258 234.061 143.668 236.966 144.577 240.51C144.961 242.009 155.094 274.788 155.45 275.688C156.734 278.922 158.431 280.656 161.131 281.5C162.368 281.884 163.165 281.987 164.974 281.978C166.398 281.978 166.792 281.95 167.495 281.772C170.223 281.087 172.341 279.241 173.682 276.391C174.31 275.079 174.46 274.591 177.525 264.037C179.09 258.647 180.402 254.307 180.43 254.382C180.459 254.457 181.733 258.91 183.252 264.271C186.186 274.582 186.579 275.904 187.151 277.132C188.623 280.347 191.135 281.837 195.344 282.006C199.074 282.156 201.896 281.153 203.545 279.081C204.202 278.256 204.914 276.879 205.373 275.566C206.029 273.673 216.209 240.96 216.434 240.013C217.662 234.857 216.05 231.361 212.057 230.536C210.997 230.321 209.123 230.339 208.176 230.574C205.776 231.183 204.53 232.683 203.555 236.151C203.395 236.713 201.661 243.256 199.702 250.68C197.743 258.104 196.103 264.262 196.056 264.365C195.953 264.599 196.356 266.033 192.157 250.539C187.751 234.286 188.06 235.382 187.517 234.276C186.486 232.167 184.967 230.977 182.746 230.527C182.127 230.396 181.649 230.377 180.496 230.414C178.837 230.471 178.303 230.583 177.112 231.155C176.466 231.464 176.175 231.68 175.566 232.298C174.675 233.208 174.15 234.089 173.635 235.542C173.438 236.113 171.601 242.815 169.567 250.427C165.658 265.031 165.789 264.552 165.724 264.496C165.705 264.468 164.036 258.291 162.021 250.774C160.006 243.247 158.206 236.62 158.028 236.057C157.053 233.058 155.713 231.361 153.744 230.658C153.004 230.396 150.801 230.321 149.836 230.527Z" fill="#CC6118"/>
<path d="M345.133 230.53C335.573 231.618 328.158 236.483 324.418 244.122C323.406 246.175 322.881 247.684 322.365 249.98C321.887 252.127 321.794 253.167 321.803 256.307C321.803 258.857 321.831 259.382 322.009 260.572C322.89 266.206 325.074 270.714 328.683 274.351C331.973 277.67 335.929 279.854 340.859 281.091C349.155 283.172 358.453 281.756 364.958 277.426C369.823 274.183 373.188 269.505 374.754 263.797C376.647 256.907 375.738 248.799 372.438 243.025C368.539 236.211 361.987 231.983 353.242 230.652C351.592 230.409 346.868 230.334 345.133 230.53ZM351.836 242.791C354.301 243.381 356.138 244.422 357.835 246.194C358.275 246.653 358.828 247.318 359.072 247.684C361.565 251.471 362.174 256.973 360.609 261.66C359.147 266.009 355.829 268.915 351.311 269.824C350.111 270.058 347.355 270.058 346.071 269.815C340.578 268.793 336.922 264.762 336.051 258.782C335.863 257.517 335.863 255.033 336.041 253.749C336.894 247.759 340.606 243.681 346.118 242.669C347.58 242.397 350.439 242.463 351.836 242.791Z" fill="#CC6118"/>
<path d="M392.235 230.572C389.732 231.238 387.848 233.075 387.108 235.587C386.948 236.121 386.939 237.283 386.911 255.787C386.892 269.406 386.92 275.621 386.986 276.08C387.23 277.636 387.783 278.705 389.001 279.923C389.714 280.645 389.985 280.842 390.735 281.207C392.038 281.854 392.61 281.976 394.11 281.976C395.272 281.976 395.45 281.948 396.247 281.685C397.475 281.273 398.328 280.739 399.265 279.792C400.174 278.883 400.718 277.955 401.037 276.783C401.233 276.099 401.233 275.893 401.233 267.035C401.233 262.057 401.28 257.296 401.327 256.443C401.477 253.818 401.89 251.859 402.733 249.788C404.636 245.073 408.198 242.57 413.007 242.57C417.909 242.57 420.786 244.97 421.705 249.835C421.78 250.247 421.874 250.734 421.911 250.912C421.949 251.091 422.005 256.846 422.033 263.707L422.099 276.174L422.314 276.877C422.914 278.864 424.236 280.392 426.12 281.292C427.067 281.742 427.77 281.929 428.81 282.004C432.203 282.239 435.493 279.923 436.365 276.689C436.515 276.127 436.525 275.124 436.525 262.348C436.525 247.463 436.534 247.754 436 245.054C434.762 238.821 431.294 234.406 425.839 232.119C423.083 230.956 419.943 230.385 416.353 230.385C410.569 230.385 405.958 232.091 401.73 235.793L401.177 236.281L401.018 235.615C400.474 233.384 398.693 231.481 396.406 230.703C395.759 230.478 395.478 230.441 394.297 230.413C393.163 230.385 392.825 230.413 392.235 230.572Z" fill="#CC6118"/>
<path d="M496.571 230.571C496.196 230.655 495.483 230.937 494.986 231.18C494.237 231.555 493.955 231.761 493.28 232.436C492.381 233.336 491.893 234.105 491.518 235.211L491.265 235.961V256.161C491.265 275.526 491.275 276.379 491.434 276.923C492.034 278.863 493.29 280.344 495.108 281.244C496.317 281.834 496.945 281.984 498.342 281.984C499.739 281.984 500.367 281.834 501.576 281.244C503.357 280.363 504.594 278.975 505.25 277.11L505.513 276.36L505.569 265.159C505.616 255.27 505.644 253.836 505.785 252.88C506.488 248.146 508.175 245.212 511.006 243.788C512.974 242.794 515.58 242.607 517.914 243.281C518.354 243.413 519.273 243.769 519.948 244.078C521.757 244.912 522.404 245.165 523.2 245.325C526.509 246.009 529.471 244.256 530.493 241.022C530.812 240.01 530.859 238.351 530.596 237.32C530.052 235.117 528.571 233.439 526.069 232.164C523.51 230.871 520.717 230.318 517.183 230.412C514.389 230.487 512.618 230.918 510.293 232.071C508.803 232.811 507.612 233.674 506.375 234.911C505.813 235.473 505.353 235.867 505.325 235.801C505.307 235.736 505.241 235.511 505.175 235.305C504.969 234.611 504.397 233.561 503.891 232.952C502.954 231.818 501.557 230.927 500.142 230.562C499.214 230.327 497.545 230.327 496.571 230.571Z" fill="#CC6118"/>
<path d="M558.006 230.442C557.8 230.461 557.022 230.564 556.272 230.676C545.568 232.167 537.675 238.737 534.948 248.411C534.235 250.932 533.926 253.351 533.935 256.35C533.945 261.093 534.863 265.03 536.832 268.817C541.275 277.356 550.714 282.333 561.803 282.005C569.948 281.762 576.678 278.903 581.59 273.616C586.586 268.245 588.807 260.146 587.58 251.766C586.811 246.536 584.571 241.878 581.065 238.269C577.616 234.716 573.098 232.26 567.895 231.098C565.524 230.573 564.408 230.461 561.287 230.433C559.693 230.414 558.212 230.423 558.006 230.442ZM563.321 242.655C565.964 243.115 568.026 244.165 569.817 245.983C571.645 247.82 572.769 250.023 573.351 252.901C573.538 253.838 573.566 254.222 573.566 256.303C573.557 258.375 573.529 258.759 573.341 259.631C572.132 265.255 568.711 268.779 563.443 269.82C562.149 270.073 559.272 270.045 557.988 269.773C554.098 268.929 551.117 266.586 549.486 263.09C547.527 258.89 547.592 253.163 549.636 249.095C551.304 245.786 554.238 243.508 557.828 242.768C559.075 242.515 559.103 242.506 560.79 242.487C561.868 242.477 562.534 242.524 563.321 242.655Z" fill="#CC6118"/>
<rect x="75.1458" y="96.2607" width="32.2567" height="99.0181" rx="16.1284" transform="rotate(-33 75.1458 96.2607)" fill="#CC6118"/>
<line x1="5" y1="188.368" x2="657.993" y2="188.368" stroke="#CC6118" stroke-width="10" stroke-linecap="round"/>
</svg>
